<svg id="Layer_1" data-name="Layer 1" xmlns="http://www.w3.org/2000/svg" viewBox="0 0 127.56 149.02"><defs><style>.cls-1{fill:#010101;}.cls-2{isolation:isolate;}.cls-3{fill:none;stroke:#231f20;stroke-miterlimit:10;}</style></defs><path class="cls-1" d="M428.93,211.08H385.7c-6,0-10.81,4.27-10.81,9.54v38.14c0,5.26,4.84,9.53,10.81,9.53h43.23c6,0,10.8-4.27,10.8-9.53V220.62C439.73,215.35,434.9,211.08,428.93,211.08Zm5.4,47.68c0,2.63-2.42,4.76-5.4,4.76H385.7c-3,0-5.41-2.13-5.41-4.76V220.62c0-2.64,2.42-4.77,5.41-4.77h43.23c3,0,5.4,2.13,5.4,4.77Z" transform="translate(-343.53 -171.44)"/><path class="cls-1" d="M407.31,225.38c-8.95,0-16.21,6.41-16.21,14.31s7.26,14.3,16.21,14.3,16.21-6.4,16.21-14.3S416.27,225.38,407.31,225.38Zm0,23.84c-6,0-10.8-4.27-10.8-9.53s4.83-9.54,10.8-9.54,10.81,4.27,10.81,9.54S413.28,249.22,407.31,249.22Z" transform="translate(-343.53 -171.44)"/><ellipse class="cls-1" cx="81.34" cy="52.75" rx="4.05" ry="3.58"/><text class="cls-2" x="-343.53" y="-171.44"/><ellipse class="cls-3" cx="63.78" cy="70.13" rx="63.28" ry="69.63"/></svg>