<svg xmlns="http://www.w3.org/2000/svg" viewBox="0 0 201.64 201.64"><defs><style>.cls-1{isolation:isolate;}.cls-2{fill:none;stroke:#000;stroke-miterlimit:10;}</style></defs><g id="Layer_1" data-name="Layer 1"><path d="M115.37,171.41a12,12,0,1,0,12,12A12,12,0,0,0,115.37,171.41Zm0,4a8,8,0,1,1-8,8A8,8,0,0,1,115.37,175.41Zm52,22a19.42,19.42,0,0,0-14,5.84v-1.84a2.07,2.07,0,0,0-2-2h-16a2.07,2.07,0,0,0-2,2v54a2.07,2.07,0,0,0,2,2h17a2.07,2.07,0,0,0,2-2v-30a11.56,11.56,0,0,1,2-6.56,5.07,5.07,0,0,1,4-2.44h2a5.06,5.06,0,0,1,4,2.44,11.56,11.56,0,0,1,2,6.56v30a2.07,2.07,0,0,0,2,2h17a2.07,2.07,0,0,0,2-2v-35c0-6.67-1.25-12.45-4.81-16.62S175.27,197.41,167.37,197.41Zm-60.19,2a2.07,2.07,0,0,0-1.81,2v54a2.07,2.07,0,0,0,2,2h17a2.07,2.07,0,0,0,2-2v-54a2.07,2.07,0,0,0-2-2Zm60.19,2c7.18,0,11.46,1.84,14.13,5s3.87,7.88,3.87,14v33h-13v-28a15.27,15.27,0,0,0-2.72-8.87,9.11,9.11,0,0,0-7.28-4.13h-2a9.11,9.11,0,0,0-7.28,4.13,15.27,15.27,0,0,0-2.72,8.87v12h-1.19a2,2,0,0,0,.19,4h1v4h-1.19a2,2,0,0,0,.19,4h1v4h-13v-50h12v5a2,2,0,0,0,3.56,1.25C156.29,205.47,159.87,201.41,167.37,201.41Zm-58,2h13v34h-1.19a2,2,0,0,0,.19,4h1v4h-1.19a2,2,0,0,0,.19,4h1v4h-13Z" transform="translate(-43.18 -127.09)"/><text class="cls-1" x="-43.18" y="-127.09"/></g><g id="back"><circle class="cls-2" cx="100.82" cy="100.82" r="100.32"/></g></svg>