<svg xmlns="http://www.w3.org/2000/svg" viewBox="0 0 1369.38 779.83"><defs><style>.cls-1{fill:#ffa017;}.cls-2{fill:#eaff2e;}.cls-3{fill:#7d6055;}.cls-4{fill:#c2ff45;}.cls-4,.cls-5,.cls-6{stroke:#000;stroke-miterlimit:10;stroke-width:0.71px;}.cls-5{fill:#fffb00;}.cls-6{fill:#734400;}</style></defs><g id="Layer_1" data-name="Layer 1"><rect class="cls-1" x="633.38" y="6.83" width="736" height="768" rx="185.6"/><rect class="cls-2" x="3.38" y="6.83" width="1366" height="768"/><rect class="cls-3" x="701.38" y="97.83" width="599" height="622" rx="272.97"/><path class="cls-4" d="M864.39,427.26l99.86,12.68c-7,54.78-57.76,94.14-112.54,87.18s-94.14-57.76-87.18-112.54,57.75-94.13,112.54-87.18a100.7,100.7,0,0,1,71.63,44.88Z" transform="translate(3.38 6.83)"/><path class="cls-5" d="M837.11,434.19,937,446.87c-7,54.78-57.76,94.13-112.54,87.18s-94.13-57.76-87.18-112.54S795,327.37,849.79,334.33a100.73,100.73,0,0,1,71.64,44.87Z" transform="translate(3.38 6.83)"/><path class="cls-6" d="M804.81,440.13l99.85,12.67c-6.95,54.79-57.75,94.14-112.53,87.18S698,482.23,705,427.45s57.75-94.14,112.53-87.18a100.67,100.67,0,0,1,71.64,44.87Z" transform="translate(3.38 6.83)"/><path class="cls-4" d="M975.21,263.43,946.5,359.91c-52.93-15.75-83.52-72.27-67.77-125.19S951,151.2,1003.92,167s83.52,72.26,67.77,125.19a100.77,100.77,0,0,1-55.91,63.41Z" transform="translate(3.38 6.83)"/><path class="cls-5" d="M972.8,235.39l-28.71,96.48c-52.93-15.75-83.52-72.26-67.77-125.19s72.26-83.52,125.19-67.77,83.52,72.26,67.77,125.19a100.75,100.75,0,0,1-55.91,63.41Z" transform="translate(3.38 6.83)"/><path class="cls-6" d="M972.18,202.55,943.47,299C890.54,283.28,860,226.77,875.7,173.84S948,90.32,1000.89,106.07s83.52,72.26,67.77,125.19a100.7,100.7,0,0,1-55.9,63.41Z" transform="translate(3.38 6.83)"/><path class="cls-4" d="M1130,387.12H1029.29c0-55.22,45.44-100.66,100.66-100.66s100.66,45.44,100.66,100.66S1185.17,487.78,1130,487.78a100.71,100.71,0,0,1-76.72-35.49Z" transform="translate(3.38 6.83)"/><path class="cls-5" d="M1156.13,376.81H1055.47c0-55.22,45.44-100.66,100.66-100.66s100.66,45.44,100.66,100.66-45.44,100.67-100.66,100.67a100.75,100.75,0,0,1-76.72-35.5Z" transform="translate(3.38 6.83)"/><path class="cls-6" d="M1187.43,366.85H1086.77c0-55.22,45.44-100.66,100.66-100.66s100.67,45.44,100.67,100.66-45.44,100.67-100.67,100.67a100.71,100.71,0,0,1-76.72-35.5Z" transform="translate(3.38 6.83)"/><path class="cls-4" d="M1021.18,546.55l28.71-96.48c52.92,15.75,83.52,72.26,67.77,125.19S1045.39,658.78,992.47,643,909,570.77,924.7,517.84a100.7,100.7,0,0,1,55.9-63.41Z" transform="translate(3.38 6.83)"/><path class="cls-5" d="M1023.59,574.59l28.71-96.48c52.92,15.75,83.52,72.26,67.77,125.19s-72.27,83.52-125.19,67.77-83.52-72.27-67.77-125.19A100.7,100.7,0,0,1,983,482.47Z" transform="translate(3.38 6.83)"/><path class="cls-6" d="M1024.21,607.43,1052.92,511c52.92,15.75,83.52,72.26,67.77,125.19s-72.27,83.52-125.19,67.77S912,631.64,927.73,578.72a100.7,100.7,0,0,1,55.9-63.41Z" transform="translate(3.38 6.83)"/></g><g id="BACKRED"><path class="cls-3" d="M.45,773C166.61,607.83,717,37.19,717,37.19L.45,721.51,575.67,141,.45,681.33,545.37,141,.45,637.38,512.73,141,.45,595.94,480.1,141,.45,548.22,442.8,141,.45,508,390.35,141,.45,452.78,347.23,141,.45,398.78,286.62,141,.45,341,234.17,141,.45,290.78l168.37-150L.45,241.81,127.13,133.6.45,202.88l91.79-84.67-91.79,42,71.36-56-71.36,12L53.09,87,.45,79.81,33.85,63,.45,52.19l21.69-9L.45-6.83" transform="translate(3.38 6.83)"/><path class="cls-3" d="M-3.38-3C159,173,720,756,720,756L47.23-3,618,606.3,86.74-3,618,574.2,130-3,618,539.63,170.69-3,618,505.06,217.6-3,618,465.56,257.11-3,618,410,311.43-3,618,364.32,364.52-3,618,300.12,421.31-3,618,244.57,470.69-3,618.14,175.35,518.84-3,625.22,131.18,557.11-3l83.24,97.23L599.09-3l55,75.58L642.3-3,671,52.76,678.1-3l16.5,35.38L705.26-3l8.84,23L763.28-3" transform="translate(3.38 6.83)"/><path class="cls-3" d="M784,768.3C621.64,592.3,60.64,9.3,60.64,9.3l672.77,759L162.64,159,693.9,768.3,162.64,191.1,650.69,768.3,162.64,225.67,610,768.3,162.64,260.23,563,768.3,162.64,299.74,523.53,768.3l-360.89-413,306.57,413L162.64,401,416.12,768.3,162.64,465.17,359.33,768.3,162.64,520.73,310,768.3,162.5,590,261.8,768.3,155.42,634.11,223.53,768.3l-83.24-97.23,41.27,97.23-55-75.59,11.83,75.59-28.71-55.76-7.1,55.76L86,732.91,75.38,768.3l-8.84-23-49.18,23" transform="translate(3.38 6.83)"/></g></svg>