<svg xmlns="http://www.w3.org/2000/svg" viewBox="0 0 201.64 233.09"><defs><style>.cls-1{fill-rule:evenodd;}.cls-2{isolation:isolate;}.cls-3{fill:none;stroke:#000;stroke-miterlimit:10;}</style></defs><g id="Layer_1" data-name="Layer 1"><path class="cls-1" d="M100.85,275.08c-13.16-3.76-23.63-14.57-24.78-14.57h0c11.62-.5,19.39-2,19.78-3.29l-1.36,0c-23,0-35-24-35-24,4.51,4.1,11.4,5.29,17.48,5.29,7.21,0,13.29-1.67,12.93-2.14-30.38-3.14-34.16-41.29-34.16-41.29h0c18.87,14.36,113,9.87,113,48.52,0,26.33-20.78,35.07-42.58,35.07a94,94,0,0,1-25.32-3.61m81.09-83a4.61,4.61,0,0,1-.14,1.1,5.15,5.15,0,0,1-6.17,3.63,4.88,4.88,0,0,1-3.81-5.88,5.1,5.1,0,0,1,5.5-3.73,3.23,3.23,0,0,0-.74,1.39,3.3,3.3,0,0,0,2.58,4,3.57,3.57,0,0,0,2.78-.5m2.61,1.72a8,8,0,0,1-9.57,5.63,7.57,7.57,0,0,1-5.91-9.12,8,8,0,0,1,9.58-5.63,7.57,7.57,0,0,1,5.9,9.12m36.37-1.31-11.85-.82-.2-.4,7.77-8.14a19.93,19.93,0,0,0-2.49-.65,20.83,20.83,0,0,0-11,1,34.47,34.47,0,0,0-28.64-9.79c-15.36,1.85-27,13.32-29,27.25l-.15,0a113.84,113.84,0,0,1-2.29,11.32c1.13.4,2.24.81,3.32,1.24,8.28,3.27,14.46,7,18.9,11.49a25.84,25.84,0,0,1,8,18.73,40.63,40.63,0,0,1-4,18.49,33.5,33.5,0,0,1-11,12.47c-8,5.56-19.16,8.49-32.17,8.49a98.47,98.47,0,0,1-26.64-3.79c-1.09-.31-2.2-.68-3.31-1.09a148.81,148.81,0,0,1-14.15,9c29.81,17.53,64,6.12,65.27,5.69C201,274.66,209.51,225,210.57,216.75c.11-.87.25-1.73.41-2.58.53-2.8,1.57-9.1,1.07-12.88-.06-.38-.12-.76-.19-1.14,3.91-1.81,7.37-4.73,9.06-7.71" transform="translate(-43.18 -127.09)"/><text class="cls-2" x="-43.18" y="-127.09"/><text class="cls-2" x="-43.18" y="-127.09"/></g><g id="back"><circle class="cls-3" cx="100.82" cy="100.82" r="100.32"/></g></svg>